# xmcd
#
# Track frame offsets: 
#        150
#        18345
#        34522
#        51120
#        67140
#        81942
#        94935
#        116015
#        137992
#        149260
#        163075
#        179325
#
# Disc length: 2624 seconds
#
# Revision: 0
# Processed by: cddbd v1.4PL0 Copyright (c) Steve Scherf et al.
# Submitted via: ExactAudioCopy v0.90b4
#
DISCID=aa0a3e0c
DTITLE=Jim Cogan Band - Heritage
DYEAR=1994
DGENRE=
TTITLE0=The lonsome traveller
TTITLE1=Make my engine run
TTITLE2=She is the woman
TTITLE3=Eighteen Wheels
TTITLE4=Star of 58
TTITLE5=Rock'n Roll was mine
TTITLE6=The Ghostriders in the Sky
TTITLE7=Medley
TTITLE8=My rifle, my pony and me
TTITLE9=The Battle of New Orleans
TTITLE10=Train bound for nowhere
TTITLE11=Second chance
EXTD=
EXTT0=
EXTT1=
EXTT2=
EXTT3=
EXTT4=
EXTT5=
EXTT6=
EXTT7=
EXTT8=
EXTT9=
EXTT10=
EXTT11=
PLAYORDER=
